<?xml version="1.0" standalone="no"?>
<!DOCTYPE svg PUBLIC "-//W3C//DTD SVG 20010904//EN"
 "http://www.w3.org/TR/2001/REC-SVG-20010904/DTD/svg10.dtd">
<svg version="1.0" xmlns="http://www.w3.org/2000/svg"
 width="256.000000pt" height="256.000000pt" viewBox="0 0 256.000000 256.000000"
 preserveAspectRatio="xMidYMid meet">

<g transform="translate(0.000000,256.000000) scale(0.100000,-0.100000)"
fill="#000000" stroke="none">
<path d="M1126 2551 c-3 -4 -37 -11 -75 -15 -38 -4 -93 -16 -123 -27 -29 -11
-66 -25 -83 -30 -69 -21 -210 -94 -208 -107 2 -6 -3 -9 -10 -7 -29 12 -295
-204 -281 -227 5 -7 2 -8 -5 -4 -8 5 -14 0 -18 -13 -3 -12 -9 -21 -14 -21 -10
0 -89 -105 -89 -120 0 -5 -3 -10 -7 -10 -13 0 -55 -76 -107 -193 -31 -69 -74
-215 -81 -275 -4 -34 -11 -65 -16 -68 -12 -7 -12 -297 1 -310 5 -5 14 -42 20
-82 5 -40 19 -98 31 -130 11 -31 23 -66 26 -77 5 -22 68 -161 84 -185 82 -131
120 -180 132 -174 7 4 9 4 5 0 -4 -5 -1 -15 5 -23 23 -29 181 -183 188 -183 3
0 19 -11 34 -24 15 -13 40 -30 54 -37 14 -7 35 -20 46 -29 24 -20 211 -101
275 -120 25 -8 50 -17 55 -21 6 -4 43 -10 83 -14 39 -4 75 -11 78 -16 7 -12
301 -12 308 0 3 4 37 11 75 15 38 4 93 16 123 27 29 11 67 25 83 30 29 8 45
16 144 63 122 58 370 253 355 278 -5 7 -2 8 5 4 8 -5 14 0 18 13 3 12 9 21 14
21 10 0 89 105 89 120 0 5 3 10 8 10 12 0 54 76 106 193 31 69 74 215 81 275
4 34 11 65 16 68 12 7 12 289 0 312 -5 9 -14 49 -19 87 -13 86 -53 207 -98
299 -19 37 -34 72 -34 78 0 5 -5 14 -10 21 -6 7 -34 46 -64 87 -29 41 -59 74
-65 72 -7 -1 -10 2 -6 8 3 5 1 10 -4 10 -6 0 -11 6 -11 14 0 20 -161 167 -240
220 -90 60 -179 108 -191 101 -5 -4 -9 -2 -9 3 0 21 -206 91 -295 99 -36 3
-68 10 -71 14 -7 12 -301 12 -308 0z m-109 -811 c63 -28 121 -76 155 -130 19
-28 29 -38 28 -25 -1 11 -2 55 -1 98 l1 78 93 -3 92 -3 3 -36 3 -37 66 34
c171 86 400 61 527 -56 49 -45 99 -125 110 -175 4 -16 9 -38 12 -48 5 -16 -2
-17 -97 -15 l-102 3 -11 32 c-40 116 -196 177 -316 122 -52 -23 -82 -48 -74
-61 3 -4 0 -7 -7 -6 -6 2 -23 -19 -38 -47 -23 -45 -26 -61 -26 -160 0 -94 3
-116 23 -152 67 -128 209 -176 333 -113 46 24 98 83 106 121 l6 29 103 0 104
0 -6 -27 c-15 -62 -48 -130 -82 -173 -21 -24 -36 -48 -35 -51 1 -4 -5 -6 -15
-5 -9 0 -16 -5 -14 -12 1 -8 -2 -10 -8 -7 -6 4 -19 0 -28 -8 -9 -8 -46 -25
-82 -37 -126 -42 -322 -23 -411 41 -36 26 -39 25 -39 -16 l0 -35 -94 0 c-107
0 -109 2 -101 91 5 66 -7 79 -34 35 -24 -38 -100 -98 -146 -116 -50 -19 -149
-28 -213 -19 -232 32 -372 261 -333 544 27 190 146 330 311 365 65 13 184 3
237 -20z m713 -1041 l0 -59 -40 0 c-44 0 -66 25 -55 61 8 25 45 41 63 27 9 -8
12 -4 12 16 0 16 4 25 10 21 6 -3 10 -33 10 -66z m-270 1 l0 -60 -40 0 c-33 0
-42 4 -49 22 l-8 22 -12 -22 c-16 -30 -66 -30 -82 -1 -18 34 3 69 42 69 22 0
32 -5 36 -20 3 -11 9 -20 13 -20 5 0 12 9 15 20 4 14 15 20 36 20 19 0 29 5
29 15 0 8 5 15 10 15 6 0 10 -27 10 -60z m162 0 c-5 -78 -23 -78 -21 0 1 36 6
60 13 60 7 0 10 -21 8 -60z m-625 3 l15 -37 14 32 c7 18 17 32 23 32 5 0 -2
-28 -16 -62 -29 -73 -48 -99 -39 -53 4 19 1 45 -9 68 -8 20 -15 41 -15 47 0
21 11 9 27 -27z m-37 -19 l0 -45 -41 3 c-46 3 -63 26 -48 66 7 18 16 22 49 22
l40 0 0 -46z m178 34 c7 -7 12 -25 12 -40 0 -51 -81 -50 -88 1 -7 42 46 69 76
39z m106 -4 c4 -9 3 -20 0 -23 -4 -3 -9 0 -11 7 -7 17 -42 15 -50 -4 -3 -8 1
-23 10 -32 15 -14 18 -14 38 4 21 19 21 19 18 -1 -3 -14 -13 -21 -37 -23 -26
-3 -34 1 -43 21 -16 35 3 67 40 67 18 0 31 -6 35 -16z m314 -11 c3 -18 -2 -22
-32 -25 -29 -2 -34 -6 -26 -18 8 -13 13 -13 31 -2 22 14 35 10 24 -7 -3 -6
-20 -11 -36 -11 -37 0 -57 35 -39 69 16 31 74 26 78 -6z m32 -53 c0 -5 -4 -10
-10 -10 -5 0 -10 5 -10 10 0 6 5 10 10 10 6 0 10 -4 10 -10z"/>
<path d="M834 1582 c-69 -24 -107 -57 -141 -122 -25 -50 -28 -65 -28 -155 0
-92 2 -104 30 -154 50 -90 122 -131 230 -131 119 0 202 57 251 175 20 49 20
163 -1 226 -24 72 -96 143 -166 164 -67 19 -112 19 -175 -3z"/>
<path d="M1653 694 c-3 -8 1 -23 10 -31 13 -13 19 -14 31 -3 20 16 20 36 0 44
-25 9 -34 7 -41 -10z"/>
<path d="M1293 703 c-18 -7 -16 -28 3 -43 12 -11 18 -10 31 3 28 27 4 56 -34
40z"/>
<path d="M1387 696 c-3 -8 0 -22 7 -32 18 -24 46 -11 46 21 0 20 -5 25 -24 25
-13 0 -26 -6 -29 -14z"/>
<path d="M890 694 c-11 -12 -10 -18 3 -31 13 -13 19 -14 31 -3 9 7 16 21 16
31 0 23 -32 25 -50 3z"/>
<path d="M1091 707 c-16 -16 -13 -44 6 -51 18 -7 33 9 33 35 0 21 -24 31 -39
16z"/>
<path d="M1502 713 c-6 -3 -10 -9 -6 -14 7 -12 44 -12 44 0 0 11 -21 19 -38
14z"/>
</g>
</svg>
