<svg id="undraw_Letter_re_8m03" xmlns="http://www.w3.org/2000/svg" width="75.046" height="97.4" viewBox="0 0 75.046 97.4">
  <path id="Path_56" data-name="Path 56" d="M373.086,343.49l-20.948-4.519-.272-.059a.754.754,0,0,0-.836,1.071l8.317,16.89a.753.753,0,0,0,1.221.185l5.777-6.091a.438.438,0,0,1,.322-.141.454.454,0,0,1,.4.235l1.183,2.189a.736.736,0,0,0,.824.378h.006a.737.737,0,0,0,.584-.7l.237-5.052a.46.46,0,0,1,.046-.182.49.49,0,0,1,.119-.147l3.333-2.736a.754.754,0,0,0-.318-1.32Zm.128,1.087-3.333,2.736a.744.744,0,0,0-.117.119L352.1,339.421a.264.264,0,0,0-.049-.017.3.3,0,0,0-.251.537l14.523,10.668a.723.723,0,0,0-.2.15l-5.777,6.091a.452.452,0,0,1-.733-.111L351.3,339.85a.453.453,0,0,1,.5-.642l.279.06,20.941,4.517a.453.453,0,0,1,.192.792Z" transform="translate(-350.952 -306.936)" fill="#fff"/>
  <path id="Path_57" data-name="Path 57" d="M504.033,276.62a5.043,5.043,0,0,1-3.676-5.52,4.349,4.349,0,0,1,2.141-2.973,9,9,0,0,1,4.326-1.226,25.672,25.672,0,0,1,5.061.383c1.658.241,3.316.456,4.981.588a64.211,64.211,0,0,0,19.441-1.444q2.358-.544,4.688-1.277a32.208,32.208,0,0,0,4.306-1.609c1.847-.887,4.849-2.612,4.6-5.807a6.255,6.255,0,0,0-2.134-3.99,17.683,17.683,0,0,0-4-2.618c-6.414-3.387-12.84-6.734-19.261-10.1-1.5-.786-3.007-1.551-4.461-2.471a14.765,14.765,0,0,1-3.812-3.248,7.462,7.462,0,0,1-1.782-4.648A5.84,5.84,0,0,1,516,226.924c2.077-2.363,5.015-3.322,7.67-3.824,3.3-.624,6.646-.62,9.947-1.223a13.971,13.971,0,0,0,7.682-3.624,6.87,6.87,0,0,0,1.873-3.272,6.431,6.431,0,0,0-.385-3.882,10.014,10.014,0,0,0-2.509-3.435,15.055,15.055,0,0,0-3.805-2.542,92.374,92.374,0,0,0-9.006-3.192,19.665,19.665,0,0,1-4.322-2,7.748,7.748,0,0,1-3.061-3.326c-1.328-3.16,1.84-5.044,3.636-5.757a23.373,23.373,0,0,1,3.758-1.076c.271-.058.156-.6-.114-.541a22.482,22.482,0,0,0-3.946,1.152,7.627,7.627,0,0,0-3.05,2.058,4.285,4.285,0,0,0-.968,3.35,6.186,6.186,0,0,0,2.124,3.531,13.57,13.57,0,0,0,4.009,2.446c1.481.627,2.993,1.116,4.5,1.6,3.02.958,6.176,1.813,8.9,3.852,1.907,1.427,4.5,4.1,3.864,7.417a6.385,6.385,0,0,1-2.06,3.469,11.994,11.994,0,0,1-3.689,2.243c-6.042,2.432-12.692.693-18.578,4-2,1.123-4.432,3.167-4.452,6.384a7.859,7.859,0,0,0,1.488,4.415,13.339,13.339,0,0,0,3.583,3.421,41.715,41.715,0,0,0,4.279,2.477q2.415,1.269,4.832,2.534l9.776,5.127,4.857,2.547a22.872,22.872,0,0,1,4.351,2.664,5.6,5.6,0,0,1,2.295,4.371,4.735,4.735,0,0,1-2.011,3.332,14.186,14.186,0,0,1-3.851,2.063c-1.532.585-3.089,1.071-4.649,1.508a62.761,62.761,0,0,1-9.754,1.909,64.133,64.133,0,0,1-9.909.369q-2.507-.1-5.006-.4c-1.717-.207-3.427-.525-5.149-.667a13.6,13.6,0,0,0-4.663.313,6.769,6.769,0,0,0-3.605,2.148,4.753,4.753,0,0,0-1.009,3.21,5.764,5.764,0,0,0,1.182,3.181,5.347,5.347,0,0,0,2.858,1.919c.268.072.383-.468.114-.541Z" transform="translate(-477.434 -179.813)" fill="#fff"/>
  <rect id="Rectangle_18" data-name="Rectangle 18" width="48.821" height="0.338" transform="translate(26.226 97.063)" fill="#3f3d56"/>
  <circle id="Ellipse_31" data-name="Ellipse 31" cx="3.189" cy="3.189" r="3.189" transform="translate(67.946 74.781)" fill="#fff"/>
  <circle id="Ellipse_32" data-name="Ellipse 32" cx="3.189" cy="3.189" r="3.189" transform="translate(62.127 29.829)" fill="#fff"/>
  <path id="Path_58" data-name="Path 58" d="M681.234,126.9l-8.856,3.85a1.611,1.611,0,0,0-.834,2.118l2.75,6.326a1.611,1.611,0,0,0,2.118.834l8.856-3.85a1.611,1.611,0,0,0,.834-2.118l-2.75-6.325A1.611,1.611,0,0,0,681.234,126.9Zm.367.843a.687.687,0,0,1,.166-.048l-2.994,5.649-6.149-1.683a.69.69,0,0,1,.122-.069Zm3.3,7.591-8.856,3.85a.691.691,0,0,1-.908-.358l-2.725-6.269,6.473,1.771a.46.46,0,0,0,.528-.228l3.134-5.913,2.712,6.238a.691.691,0,0,1-.358.908Z" transform="translate(-623.129 -126.769)" fill="#fff"/>
  <circle id="Ellipse_33" data-name="Ellipse 33" cx="8.064" cy="8.064" r="8.064" transform="translate(40.109 38.875)" fill="#3e3354"/>
  <path id="Path_59" data-name="Path 59" d="M644.194,656.13H641.97a.98.98,0,0,1-.979-.979V636.616a.98.98,0,0,1,.979-.979h2.224a.98.98,0,0,1,.979.979V655.15A.98.98,0,0,1,644.194,656.13Z" transform="translate(-597.292 -558.968)" fill="#2f2e41"/>
  <path id="Path_60" data-name="Path 60" d="M673.387,656.13h-2.224a.98.98,0,0,1-.979-.979V636.616a.98.98,0,0,1,.979-.979h2.224a.98.98,0,0,1,.979.979V655.15A.981.981,0,0,1,673.387,656.13Z" transform="translate(-622.087 -558.968)" fill="#2f2e41"/>
  <path id="Path_61" data-name="Path 61" d="M698.1,520.063a.986.986,0,0,1-.288-.043.974.974,0,0,1-.578-.477l-8.688-16.372a.979.979,0,0,1,.406-1.324l1.964-1.042a.979.979,0,0,1,1.324.406l8.688,16.372a.979.979,0,0,1-.406,1.324l-1.964,1.042A.972.972,0,0,1,698.1,520.063Z" transform="translate(-637.585 -444.352)" fill="#3e3354"/>
  <path id="Path_62" data-name="Path 62" d="M529.319,469.432a.974.974,0,0,1-.344-.063h0l-17.338-6.55a.978.978,0,0,1-.569-1.262l.784-2.08a.982.982,0,0,1,1.264-.569l17.338,6.549a.982.982,0,0,1,.57,1.262l-.786,2.081A.984.984,0,0,1,529.319,469.432Z" transform="translate(-486.89 -408.812)" fill="#3e3354"/>
  <rect id="Rectangle_19" data-name="Rectangle 19" width="11.912" height="23.274" rx="5.956" transform="translate(42.125 56.402)" fill="#2f2e41"/>
  <path id="Path_63" data-name="Path 63" d="M646.11,383.947a4.174,4.174,0,0,1,.417,3.408,1.722,1.722,0,0,1-2.567.847,21.308,21.308,0,0,1-2.6-2.2,3.094,3.094,0,0,0-1.432-.617,5.741,5.741,0,0,0-1.787.173,2.365,2.365,0,0,1-2.988-1.437c-.119-.265-.509-.035-.39.228A2.794,2.794,0,0,0,637.5,386.1c.648-.046,1.273-.255,1.922-.285a2.568,2.568,0,0,1,1.643.525c1.005.717,1.688,1.817,2.841,2.337a2.305,2.305,0,0,0,1.741.136,2.282,2.282,0,0,0,1.166-1.015c.757-1.3.271-2.81-.307-4.077C646.38,383.455,645.99,383.684,646.11,383.947Z" transform="translate(-591.981 -344.906)" fill="#fff"/>
  <path id="Path_64" data-name="Path 64" d="M664.878,427.257a2.773,2.773,0,0,1-1.6-.38,1.225,1.225,0,0,1-.482-.915.824.824,0,0,1,.28-.677,1.063,1.063,0,0,1,1.006-.145l-.407-2.972.3-.041.478,3.494-.249-.114a.912.912,0,0,0-.932.008.53.53,0,0,0-.174.436.926.926,0,0,0,.359.682,2.492,2.492,0,0,0,1.426.322Z" transform="translate(-615.814 -377.627)" fill="#fff"/>
  <rect id="Rectangle_20" data-name="Rectangle 20" width="1.623" height="0.301" transform="translate(44.767 44.798)" fill="#fff"/>
  <rect id="Rectangle_21" data-name="Rectangle 21" width="1.623" height="0.301" transform="translate(49.89 44.798)" fill="#fff"/>
  <path id="Path_65" data-name="Path 65" d="M586.677,487.537l-7.126-2.173a.9.9,0,0,1-.613-1.087l.832-3.278a.9.9,0,0,1,1.264-.594l7.068,3.359a.906.906,0,0,1,.527,1.165l-.786,2.081A.906.906,0,0,1,586.677,487.537Z" transform="translate(-544.566 -427.05)" fill="#2f2e41"/>
  <path id="Path_66" data-name="Path 66" d="M689.448,502.561l3.056,6.794a.9.9,0,0,0,1.156.47l3.146-1.239a.9.9,0,0,0,.43-1.329l-4.226-6.586a.906.906,0,0,0-1.222-.375l-1.965,1.043A.906.906,0,0,0,689.448,502.561Z" transform="translate(-638.358 -443.928)" fill="#2f2e41"/>
  <path id="Path_67" data-name="Path 67" d="M373.086,343.49l-20.948-4.519-.272-.059a.754.754,0,0,0-.836,1.071l8.317,16.89a.753.753,0,0,0,1.221.185l5.777-6.091a.438.438,0,0,1,.322-.141.454.454,0,0,1,.4.235l1.183,2.189a.736.736,0,0,0,.824.378h.006a.737.737,0,0,0,.584-.7l.237-5.052a.46.46,0,0,1,.046-.182.49.49,0,0,1,.119-.147l3.333-2.736a.754.754,0,0,0-.318-1.32Zm.128,1.087-3.333,2.736a.744.744,0,0,0-.117.119.7.7,0,0,0-.08.126.722.722,0,0,0-.055.143h0a.712.712,0,0,0-.024.158l-.237,5.052a.438.438,0,0,1-.35.42h0a.439.439,0,0,1-.5-.225l-1.184-2.19a.752.752,0,0,0-.618-.393h-.053a.733.733,0,0,0-.342.085.723.723,0,0,0-.2.15l-5.777,6.091a.452.452,0,0,1-.733-.111L351.3,339.85a.453.453,0,0,1,.5-.642l.279.06,20.941,4.517a.453.453,0,0,1,.192.792Z" transform="translate(-350.952 -306.936)" fill="#fff"/>
  <path id="Path_68" data-name="Path 68" d="M373.9,350.274l-.124.274-.077-.034h0l-17.649-8,14.738,10.828h0l.039.03-.178.243-.256-.189-14.523-10.668a.3.3,0,0,1,.251-.537.264.264,0,0,1,.049.017l17.663,8.011Z" transform="translate(-355.024 -309.747)" fill="#3f3d56"/>
</svg>
